<svg xmlns="http://www.w3.org/2000/svg" viewBox="0 0 512 512" role="img" aria-label="Pró Volei">
  <rect width="512" height="512" rx="112" fill="#071522"/>
  <circle cx="256" cy="256" r="178" fill="#f7fbff" stroke="#69e1d1" stroke-width="18"/>
  <path d="M256 78c50 45 77 91 79 138-35-24-78-39-129-43 7-37 24-69 50-95Z" fill="#ef654f"/>
  <path d="M335 216c46 11 85 32 119 64-25 60-72 107-132 132 18-58 22-111 13-196Z" fill="#16a6a1"/>
  <path d="M322 412c-59 24-123 19-178-14 50-23 91-55 123-98 27 35 46 72 55 112Z" fill="#ef654f"/>
  <path d="M144 398c-53-31-90-85-101-147 43 36 90 58 142 66-10 34-24 61-41 81Z" fill="#16a6a1"/>
  <path d="M43 251c3-65 40-124 99-155-12 55-9 107 10 156-42 8-78 8-109-1Z" fill="#ef654f"/>
  <circle cx="256" cy="256" r="52" fill="#071522"/>
</svg>
